<mxfile host="Electron" modified="2024-05-20T15:37:40.207Z" agent="Mozilla/5.0 (Windows NT 10.0; Win64; x64) AppleWebKit/537.36 (KHTML, like Gecko) draw.io/24.4.0 Chrome/120.0.6099.109 Electron/28.1.0 Safari/537.36" etag="qe9kS6hRRSnDLj8o8ZC-" version="24.4.0" type="device">
  <diagram name="Страница — 1" id="GNA7UaFzL81GKNedscMB">
    <mxGraphModel dx="350" dy="207" grid="1" gridSize="1" guides="1" tooltips="1" connect="1" arrows="1" fold="1" page="1" pageScale="1" pageWidth="827" pageHeight="1169" math="1" shadow="0">
      <root>
        <mxCell id="0" />
        <mxCell id="1" parent="0" />
        <mxCell id="snHm0KII3UkVdYm5LSaF-13" value="" style="verticalLabelPosition=bottom;verticalAlign=top;html=1;shape=mxgraph.basic.arc;startAngle=0.8470712900000157;endAngle=0.25;strokeColor=#C70EC1;" parent="1" vertex="1">
          <mxGeometry x="300" y="220" width="40" height="40" as="geometry" />
        </mxCell>
        <mxCell id="snHm0KII3UkVdYm5LSaF-1" value="" style="endArrow=classic;html=1;rounded=0;" parent="1" edge="1">
          <mxGeometry width="50" height="50" relative="1" as="geometry">
            <mxPoint x="320" y="240" as="sourcePoint" />
            <mxPoint x="370" y="160" as="targetPoint" />
          </mxGeometry>
        </mxCell>
        <mxCell id="snHm0KII3UkVdYm5LSaF-2" value="" style="endArrow=classic;html=1;rounded=0;" parent="1" edge="1">
          <mxGeometry width="50" height="50" relative="1" as="geometry">
            <mxPoint x="320" y="240" as="sourcePoint" />
            <mxPoint x="370" y="240" as="targetPoint" />
          </mxGeometry>
        </mxCell>
        <mxCell id="snHm0KII3UkVdYm5LSaF-3" value="" style="endArrow=classic;html=1;rounded=0;dashed=1;strokeColor=#FF1100;" parent="1" edge="1">
          <mxGeometry width="50" height="50" relative="1" as="geometry">
            <mxPoint x="320" y="161" as="sourcePoint" />
            <mxPoint x="320" y="112" as="targetPoint" />
          </mxGeometry>
        </mxCell>
        <mxCell id="snHm0KII3UkVdYm5LSaF-5" value="" style="endArrow=classic;html=1;rounded=0;" parent="1" edge="1">
          <mxGeometry width="50" height="50" relative="1" as="geometry">
            <mxPoint x="320" y="240" as="sourcePoint" />
            <mxPoint x="320" y="160" as="targetPoint" />
          </mxGeometry>
        </mxCell>
        <mxCell id="snHm0KII3UkVdYm5LSaF-6" value="" style="endArrow=none;dashed=1;html=1;rounded=0;" parent="1" edge="1">
          <mxGeometry width="50" height="50" relative="1" as="geometry">
            <mxPoint x="370" y="240" as="sourcePoint" />
            <mxPoint x="370" y="160" as="targetPoint" />
          </mxGeometry>
        </mxCell>
        <mxCell id="snHm0KII3UkVdYm5LSaF-7" value="" style="endArrow=none;dashed=1;html=1;rounded=0;" parent="1" edge="1">
          <mxGeometry width="50" height="50" relative="1" as="geometry">
            <mxPoint x="320" y="160" as="sourcePoint" />
            <mxPoint x="370" y="160" as="targetPoint" />
          </mxGeometry>
        </mxCell>
        <mxCell id="snHm0KII3UkVdYm5LSaF-8" value="" style="endArrow=classic;html=1;rounded=0;dashed=1;strokeColor=#FF1100;" parent="1" edge="1">
          <mxGeometry width="50" height="50" relative="1" as="geometry">
            <mxPoint x="370" y="160" as="sourcePoint" />
            <mxPoint x="400" y="112" as="targetPoint" />
          </mxGeometry>
        </mxCell>
        <mxCell id="snHm0KII3UkVdYm5LSaF-9" value="" style="endArrow=classic;html=1;rounded=0;strokeWidth=1;dashed=1;strokeColor=#FF1100;" parent="1" edge="1">
          <mxGeometry width="50" height="50" relative="1" as="geometry">
            <mxPoint x="369" y="240" as="sourcePoint" />
            <mxPoint x="400" y="240" as="targetPoint" />
          </mxGeometry>
        </mxCell>
        <mxCell id="snHm0KII3UkVdYm5LSaF-10" value="" style="endArrow=none;dashed=1;html=1;rounded=0;strokeColor=#ff1100;" parent="1" edge="1">
          <mxGeometry width="50" height="50" relative="1" as="geometry">
            <mxPoint x="400" y="240" as="sourcePoint" />
            <mxPoint x="400" y="112" as="targetPoint" />
          </mxGeometry>
        </mxCell>
        <mxCell id="snHm0KII3UkVdYm5LSaF-11" value="" style="endArrow=none;dashed=1;html=1;rounded=0;strokeColor=#ff1100;" parent="1" edge="1">
          <mxGeometry width="50" height="50" relative="1" as="geometry">
            <mxPoint x="320" y="112" as="sourcePoint" />
            <mxPoint x="400" y="112" as="targetPoint" />
          </mxGeometry>
        </mxCell>
        <mxCell id="snHm0KII3UkVdYm5LSaF-4" value="" style="endArrow=classic;html=1;rounded=0;entryX=0.085;entryY=0.223;entryDx=0;entryDy=0;entryPerimeter=0;strokeColor=#FF004C;" parent="1" edge="1">
          <mxGeometry width="50" height="50" relative="1" as="geometry">
            <mxPoint x="320" y="240" as="sourcePoint" />
            <mxPoint x="195.5000000000001" y="154.90000000000003" as="targetPoint" />
          </mxGeometry>
        </mxCell>
        <mxCell id="snHm0KII3UkVdYm5LSaF-15" value="" style="endArrow=classic;html=1;rounded=0;exitX=0.191;exitY=0.105;exitDx=0;exitDy=0;exitPerimeter=0;strokeColor=#c70ec1;" parent="1" source="snHm0KII3UkVdYm5LSaF-13" edge="1">
          <mxGeometry width="50" height="50" relative="1" as="geometry">
            <mxPoint x="307.52" y="225" as="sourcePoint" />
            <mxPoint x="303" y="229" as="targetPoint" />
          </mxGeometry>
        </mxCell>
        <mxCell id="snHm0KII3UkVdYm5LSaF-16" value="$$\theta$$" style="text;html=1;align=center;verticalAlign=middle;whiteSpace=wrap;rounded=0;" parent="1" vertex="1">
          <mxGeometry x="310" y="208" width="60" height="30" as="geometry" />
        </mxCell>
        <mxCell id="snHm0KII3UkVdYm5LSaF-17" value="$$v_{\lambda k-1}$$" style="text;html=1;align=center;verticalAlign=middle;whiteSpace=wrap;rounded=0;fontSize=10;" parent="1" vertex="1">
          <mxGeometry x="354" y="244" width="23" height="6" as="geometry" />
        </mxCell>
        <mxCell id="snHm0KII3UkVdYm5LSaF-18" value="$$v_{\phi k-1}$$" style="text;html=1;align=center;verticalAlign=middle;whiteSpace=wrap;rounded=0;fontSize=10;" parent="1" vertex="1">
          <mxGeometry x="288" y="160" width="23" height="6" as="geometry" />
        </mxCell>
        <mxCell id="snHm0KII3UkVdYm5LSaF-19" value="$$\vec{v}_{k-1}$$" style="text;html=1;align=center;verticalAlign=middle;whiteSpace=wrap;rounded=0;fontSize=10;" parent="1" vertex="1">
          <mxGeometry x="336" y="165" width="23" height="6" as="geometry" />
        </mxCell>
        <mxCell id="snHm0KII3UkVdYm5LSaF-20" value="$$\frac{RPM_k}{RPM_{k-1}}\vec{v}_{k-1}$$" style="text;html=1;align=center;verticalAlign=middle;whiteSpace=wrap;rounded=0;fontSize=7;" parent="1" vertex="1">
          <mxGeometry x="401" y="98" width="23" height="6" as="geometry" />
        </mxCell>
        <mxCell id="snHm0KII3UkVdYm5LSaF-21" value="$$\vec{v}_{k}$$" style="text;html=1;align=center;verticalAlign=middle;whiteSpace=wrap;rounded=0;" parent="1" vertex="1">
          <mxGeometry x="197" y="144" width="23" height="6" as="geometry" />
        </mxCell>
      </root>
    </mxGraphModel>
  </diagram>
</mxfile>
